# xmcd
#
# Track frame offsets: 
#        150
#        17125
#        37237
#        56120
#        73360
#        87222
#        109517
#        126135
#        141882
#        162950
#        179765
#        197942
#
# Disc length: 2811 seconds
#
# Revision: 0
# Processed by: cddbd v1.4PL0 Copyright (c) Steve Scherf et al.
# Submitted via: ExactAudioCopy v0.95a3
#
DISCID=b80af90c
DTITLE=Amel Larrieux - Bravebird
DYEAR=2003
DGENRE=Soul
TTITLE0=For Real
TTITLE1=Bravebird
TTITLE2=Dear To Me
TTITLE3=All I Got
TTITLE4=Beyond
TTITLE5=We Can Be New
TTITLE6=Giving Something Up
TTITLE7=Your Eyes
TTITLE8=Congo
TTITLE9=Sacred
TTITLE10=Say You Want It All
TTITLE11=All I Got2
EXTD=
EXTT0=
EXTT1=
EXTT2=
EXTT3=
EXTT4=
EXTT5=
EXTT6=
EXTT7=
EXTT8=
EXTT9=
EXTT10=
EXTT11=
PLAYORDER=
